<?xml version="1.0" encoding="UTF-8"?>
<svg version="1.1" xmlns="http://www.w3.org/2000/svg" width="500" height="500">
<path d="M0 0 C3.19388987 1.01900296 4.40862004 0.3849081 7.3984375 -1.02734375 C18.61851757 -5.92068263 31.00968555 -5.35217023 42.4609375 -1.21484375 C46.01655726 0.50955553 49.2371936 2.50494715 52.4609375 4.78515625 C53.41613281 5.44644531 53.41613281 5.44644531 54.390625 6.12109375 C63.71578903 13.29110876 68.51775472 24.46400442 70.4609375 35.78515625 C71.7292139 51.08763867 67.3634695 62.45326815 57.58203125 74.00390625 C48.85916169 83.44927612 37.28458259 87.35120649 24.6484375 87.97265625 C18.95699718 87.88492692 13.2827221 86.8444243 7.953125 84.84375 C3.00426748 82.98986764 0.24283221 82.44515363 -4.7265625 84.53515625 C-5.55414063 84.92703125 -6.38171875 85.31890625 -7.234375 85.72265625 C-10.33891765 87.15390303 -13.14100075 87.53802449 -16.5390625 87.78515625 C-17.20164063 87.83671875 -17.86421875 87.88828125 -18.546875 87.94140625 C-31.48574279 88.49791669 -43.93639775 83.32591495 -53.5390625 74.78515625 C-55.18196585 72.72197529 -56.69363021 70.71111812 -58.1640625 68.53515625 C-58.55722656 67.95813965 -58.95039062 67.38112305 -59.35546875 66.78662109 C-66.42899025 56.15549935 -67.89984511 44.40654583 -65.9140625 31.91015625 C-63.36570691 20.63722216 -57.13455252 10.57762988 -47.78125 3.78125 C-33.33454869 -5.2526533 -15.70994454 -7.51660423 0 0 Z M-26.5390625 23.78515625 C-26.5390625 35.33515625 -26.5390625 46.88515625 -26.5390625 58.78515625 C-21.2796875 58.90890625 -21.2796875 58.90890625 -15.9140625 59.03515625 C-14.2731665 59.08978027 -14.2731665 59.08978027 -12.59912109 59.14550781 C-6.57531132 59.21402299 -3.14223106 58.77561637 1.4609375 54.78515625 C1.91082031 55.14609375 2.36070313 55.50703125 2.82421875 55.87890625 C7.76484539 59.44328619 11.6823821 60.57385666 17.77734375 60.26953125 C23.48216338 59.23984037 27.64226358 56.30392903 30.9609375 51.59765625 C32.61780025 49.0222886 32.61780025 49.0222886 32.4609375 46.78515625 C29.21296017 46.36610922 29.21296017 46.36610922 25.4609375 46.78515625 C24.00026441 48.05530676 22.54046494 49.32782487 21.12890625 50.65234375 C18.3798789 52.51936467 15.82920294 52.47304581 12.5859375 52.25390625 C10.4609375 51.78515625 10.4609375 51.78515625 7.3984375 49.91015625 C4.66717666 45.50489683 4.45906312 41.83592791 5.4609375 36.78515625 C7.3984375 33.66015625 7.3984375 33.66015625 10.4609375 31.78515625 C13.615315 31.08933768 16.30959428 31.05749263 19.4609375 31.78515625 C21.12890625 32.91796875 21.12890625 32.91796875 22.5859375 34.28515625 C25.31693435 37.15927104 25.31693435 37.15927104 29.3359375 37.09765625 C30.3671875 36.99453125 31.3984375 36.89140625 32.4609375 36.78515625 C30.69856959 31.64491653 28.36493115 28.13188347 23.8984375 24.97265625 C17.89152361 22.89754054 11.94330366 22.79220979 6.0234375 25.16015625 C5.1778125 25.69640625 4.3321875 26.23265625 3.4609375 26.78515625 C2.12760417 27.45182292 0.79427083 28.11848958 -0.5390625 28.78515625 C-1.2609375 28.14578125 -1.9828125 27.50640625 -2.7265625 26.84765625 C-9.67346758 21.75325919 -18.12131639 23.78515625 -26.5390625 23.78515625 Z " fill="#46D7E3" transform="translate(100.5390625,208.21484375)"/>
<path d="M0 0 C2.0625 0.4375 2.0625 0.4375 4 1 C4 1.66 4 2.32 4 3 C5.65 2.67 7.3 2.34 9 2 C9.33 2.99 9.66 3.98 10 5 C10.66 5 11.32 5 12 5 C12 5.66 12 6.32 12 7 C13.37671875 6.94779297 13.37671875 6.94779297 14.78125 6.89453125 C21.96237667 6.73612404 27.49211296 6.87621422 34 10 C34.33 9.01 34.66 8.02 35 7 C35.495 7.99 35.495 7.99 36 9 C37.65 9 39.3 9 41 9 C42.77882289 14.33646866 42.44723163 18.95258476 40 24 C38.35 24 36.7 24 35 24 C34.505 26.475 34.505 26.475 34 29 C36.31 29.33 38.62 29.66 41 30 C40.505 31.485 40.505 31.485 40 33 C40.66 33 41.32 33 42 33 C42 34.65 42 36.3 42 38 C36.7265625 41.22265625 36.7265625 41.22265625 35 42 C34.01 41.505 34.01 41.505 33 41 C33.61875 40.2575 34.2375 39.515 34.875 38.75 C36.60437281 36.51198812 37.86106661 34.56260013 39 32 C34.57317579 32.26560945 32.49458873 32.55917092 29.125 35.5625 C25.46271916 38.41907906 23.62877627 38.68444286 19.12109375 38.43359375 C15.95589587 37.78656435 14.18255512 36.31896482 12 34 C10.15137312 30.30274625 10.52412906 26.03538558 11 22 C12.79646854 19.06576805 13.9441071 17.52794645 17 16 C20.05928485 15.57170012 22.94554939 15.51853575 26 16 C28.05279996 17.60118397 30.05651499 19.26776336 32 21 C35.72697218 21.88005337 35.72697218 21.88005337 39 22 C34.5743889 14.19702549 34.5743889 14.19702549 27 10 C20.59018449 9.33889795 15.57363131 9.4655021 10 13 C8.66666667 13.66666667 7.33333333 14.33333333 6 15 C5.4225 14.38125 4.845 13.7625 4.25 13.125 C-0.49576556 10.02199944 -5.44494161 9.67334041 -11 9 C-9.83745342 5.51236025 -9.02699938 4.93391627 -6 3 C-4.34416775 2.30686092 -2.67889021 1.63525576 -1 1 C-0.67 0.67 -0.34 0.34 0 0 Z " fill="#62DEE3" transform="translate(94,223)"/>
<path d="M0 0 C7 0 7 0 8.89624023 1.46875 C9.36231689 2.1390625 9.82839355 2.809375 10.30859375 3.5 C10.82744141 4.221875 11.34628906 4.94375 11.88085938 5.6875 C12.39455078 6.450625 12.90824219 7.21375 13.4375 8 C14.24864258 9.1446875 14.24864258 9.1446875 15.07617188 10.3125 C16.40487124 12.19384424 17.70527415 14.09511598 19 16 C19.33 10.72 19.66 5.44 20 0 C22.64 0 25.28 0 28 0 C30.15336471 4.30672942 29.18585478 10.07325005 29.18530273 14.85839844 C29.18749152 16.99173865 29.20565919 19.12456366 29.22460938 21.2578125 C29.22754294 22.60937323 29.22952798 23.96093642 29.23046875 25.3125 C29.23457764 26.54613281 29.23868652 27.77976562 29.24291992 29.05078125 C29 32 29 32 27 34 C24.58984375 34.33984375 24.58984375 34.33984375 22 34 C20.19140625 32.56640625 20.19140625 32.56640625 18.5625 30.5625 C17.9746875 29.84191406 17.386875 29.12132812 16.78125 28.37890625 C14.01609139 24.68596416 11.48871954 20.8848305 9 17 C8.67 22.28 8.34 27.56 8 33 C4 34 4 34 0 33 C0 22.11 0 11.22 0 0 Z " fill="#57E1E6" transform="translate(393,232)"/>
<path d="M0 0 C4.94102652 2.25380157 7.3863614 5.27534561 10 10 C10 10.99 10 11.98 10 13 C3.74765804 13.42388759 1.89310309 13.01485382 -3 9 C-6.92927257 8.44852315 -9.03618625 8.40688385 -12.4375 10.5 C-14.74524365 14.19238985 -14.34339438 16.67323085 -14 21 C-13.67 21.99 -13.34 22.98 -13 24 C-9.36217368 25.21260877 -6.82264001 25.39544552 -3 25 C-2.21625 24.175 -1.4325 23.35 -0.625 22.5 C2.34504028 19.67139021 2.91374638 19.65708851 6.8125 19.6875 C8.20993879 19.76728851 9.60696395 19.86342784 11 20 C8.93930442 26.50745971 7.18679418 29.54505672 1.16796875 33.07421875 C-3.67238235 35.14117949 -9.52839145 34.97733541 -14.390625 33.0546875 C-18.36374009 30.71496417 -21.33542091 28.40623878 -23 24 C-24.41814874 17.54574825 -24.57746364 11.74949513 -21 6 C-14.78692854 -0.64269874 -8.72117133 -0.75420605 0 0 Z " fill="#65DBDF" transform="translate(327,232)"/>
<path d="M0 0 C2.64 0 5.28 0 8 0 C11.36979962 7.06361843 14.41083083 14.25858671 17.375 21.5 C17.74496094 22.38461914 18.11492187 23.26923828 18.49609375 24.18066406 C18.83511719 25.01823242 19.17414063 25.85580078 19.5234375 26.71875 C19.83200684 27.47091797 20.14057617 28.22308594 20.45849609 28.99804688 C21 31 21 31 20 34 C13.9453125 33.609375 13.9453125 33.609375 12 33 C11.71125 32.34 11.4225 31.68 11.125 31 C10.75375 30.34 10.3825 29.68 10 29 C7.1213065 28.29464389 7.1213065 28.29464389 3.875 28.25 C2.77929688 28.19328125 1.68359375 28.1365625 0.5546875 28.078125 C-0.28835938 28.05234375 -1.13140625 28.0265625 -2 28 C-2.99 30.475 -2.99 30.475 -4 33 C-7.375 33.625 -7.375 33.625 -11 34 C-11.66 33.34 -12.32 32.68 -13 32 C-11.31042713 27.76371992 -9.61972828 23.52789168 -7.92797852 19.29248047 C-7.3524722 17.85119836 -6.77727526 16.40979269 -6.20239258 14.96826172 C-5.37662513 12.897787 -4.54975076 10.82775739 -3.72265625 8.7578125 C-3.33667015 7.78897629 -3.33667015 7.78897629 -2.94288635 6.80056763 C-2.0216785 4.49740315 -1.10990378 2.21980755 0 0 Z M3 13 C1.74335022 15.90600261 1 17.79604584 1 21 C3.31 21 5.62 21 8 21 C7.01 18.36 6.02 15.72 5 13 C4.34 13 3.68 13 3 13 Z " fill="#66DBDF" transform="translate(360,232)"/>
<path d="M0 0 C0.91644287 0.00523682 1.83288574 0.01047363 2.77709961 0.01586914 C3.76645508 0.0190918 4.75581055 0.02231445 5.77514648 0.02563477 C6.81606445 0.03401367 7.85698242 0.04239258 8.92944336 0.05102539 C10.49662109 0.05779297 10.49662109 0.05779297 12.09545898 0.06469727 C14.68600996 0.07652627 17.27644895 0.0930085 19.86694336 0.11352539 C19.86694336 2.42352539 19.86694336 4.73352539 19.86694336 7.11352539 C15.24694336 7.11352539 10.62694336 7.11352539 5.86694336 7.11352539 C5.86694336 9.09352539 5.86694336 11.07352539 5.86694336 13.11352539 C9.82694336 13.11352539 13.78694336 13.11352539 17.86694336 13.11352539 C17.86694336 15.42352539 17.86694336 17.73352539 17.86694336 20.11352539 C13.90694336 20.11352539 9.94694336 20.11352539 5.86694336 20.11352539 C5.86694336 22.09352539 5.86694336 24.07352539 5.86694336 26.11352539 C10.48694336 26.11352539 15.10694336 26.11352539 19.86694336 26.11352539 C19.86694336 28.42352539 19.86694336 30.73352539 19.86694336 33.11352539 C17.5435078 34.27524317 16.1706102 34.24256508 13.58569336 34.24633789 C12.32305664 34.24827148 12.32305664 34.24827148 11.03491211 34.25024414 C9.71426758 34.24444336 9.71426758 34.24444336 8.36694336 34.23852539 C7.48651367 34.24239258 6.60608398 34.24625977 5.69897461 34.25024414 C4.8572168 34.24895508 4.01545898 34.24766602 3.14819336 34.24633789 C2.37540039 34.24520996 1.60260742 34.24408203 0.80639648 34.24291992 C-1.13305664 34.11352539 -1.13305664 34.11352539 -3.13305664 33.11352539 C-3.15771056 28.57454834 -3.17589453 24.03560996 -3.18798828 19.49658203 C-3.19302804 17.95132773 -3.19985984 16.40607823 -3.20849609 14.86083984 C-3.2205774 12.6442751 -3.22628837 10.42777321 -3.23071289 8.21118164 C-3.23587418 7.51638199 -3.24103546 6.82158234 -3.24635315 6.10572815 C-3.24654941 4.44123209 -3.19494793 2.7768704 -3.13305664 1.11352539 C-2.13305664 0.11352539 -2.13305664 0.11352539 0 0 Z " fill="#64DBE0" transform="translate(439.133056640625,231.886474609375)"/>
<path d="M0 0 C7 0 7 0 9.65234375 2.51953125 C10.43762884 3.60045309 11.19905494 4.69905328 11.9375 5.8125 C12.33517578 6.35970703 12.73285156 6.90691406 13.14257812 7.47070312 C15.0566736 10.18865281 16 11.61094802 16 15 C15.01 14.67 14.02 14.34 13 14 C12.67 15.32 12.34 16.64 12 18 C13.32 18.33 14.64 18.66 16 19 C16 20.98 16 22.96 16 25 C13.35247996 22.42215154 11.05567935 20.08351902 9 17 C8.67 22.28 8.34 27.56 8 33 C4 34 4 34 0 33 C0 22.11 0 11.22 0 0 Z " fill="#5DE0E3" transform="translate(393,232)"/>
<path d="M0 0 C3.19388987 1.01900296 4.40862004 0.3849081 7.3984375 -1.02734375 C18.62390643 -5.92303284 30.99769041 -5.33646068 42.4609375 -1.21484375 C45.335968 0.27591281 47.81278862 1.90089647 50.4609375 3.78515625 C49.8009375 5.10515625 49.1409375 6.42515625 48.4609375 7.78515625 C46.8109375 7.45515625 45.1609375 7.12515625 43.4609375 6.78515625 C43.4609375 4.80515625 43.4609375 2.82515625 43.4609375 0.78515625 C42.2440625 0.80578125 41.0271875 0.82640625 39.7734375 0.84765625 C36.53087733 0.85338515 33.63023795 0.50956778 30.4609375 -0.21484375 C29.4709375 -0.21484375 28.4809375 -0.21484375 27.4609375 -0.21484375 C27.4609375 -0.87484375 27.4609375 -1.53484375 27.4609375 -2.21484375 C25.57375 -2.27671875 25.57375 -2.27671875 23.6484375 -2.33984375 C22.94074219 -2.36304688 22.23304687 -2.38625 21.50390625 -2.41015625 C19.14734031 -2.34738837 19.14734031 -2.34738837 16.4609375 -0.21484375 C14.79479142 -0.1731901 13.12708358 -0.1731901 11.4609375 -0.21484375 C10.4709375 0.11515625 9.4809375 0.44515625 8.4609375 0.78515625 C8.9559375 3.26015625 8.9559375 3.26015625 9.4609375 5.78515625 C6.34494962 7.63166759 4.07847853 8.16595004 0.4609375 7.78515625 C-0.1990625 7.12515625 -0.8590625 6.46515625 -1.5390625 5.78515625 C-2.1990625 5.45515625 -2.8590625 5.12515625 -3.5390625 4.78515625 C-3.2090625 4.12515625 -2.8790625 3.46515625 -2.5390625 2.78515625 C-3.1990625 2.78515625 -3.8590625 2.78515625 -4.5390625 2.78515625 C-4.5390625 1.79515625 -4.5390625 0.80515625 -4.5390625 -0.21484375 C-5.8384375 -0.15296875 -5.8384375 -0.15296875 -7.1640625 -0.08984375 C-10.5390625 -0.21484375 -10.5390625 -0.21484375 -13.2890625 -1.27734375 C-18.14146397 -2.67707494 -23.94340164 -2.51267418 -28.5390625 -0.21484375 C-29.5290625 -0.54484375 -30.5190625 -0.87484375 -31.5390625 -1.21484375 C-31.5390625 -1.87484375 -31.5390625 -2.53484375 -31.5390625 -3.21484375 C-21.0426673 -5.57700891 -9.7672009 -4.67322997 0 0 Z " fill="#26C0D5" transform="translate(100.5390625,208.21484375)"/>
<path d="M0 0 C2.0625 0.4375 2.0625 0.4375 4 1 C4 1.66 4 2.32 4 3 C5.65 2.67 7.3 2.34 9 2 C9.33 2.99 9.66 3.98 10 5 C10.66 5 11.32 5 12 5 C12 5.66 12 6.32 12 7 C12.66 7.33 13.32 7.66 14 8 C12.77065985 11.68802044 11.06140622 12.72356973 8 15 C5.50638429 13.79618552 3.31856917 12.54571278 1 11 C-1.04869074 10.55570562 -3.11454293 10.18705805 -5.1875 9.875 C-6.81751953 9.62363281 -6.81751953 9.62363281 -8.48046875 9.3671875 C-9.72763672 9.18542969 -9.72763672 9.18542969 -11 9 C-9.83745342 5.51236025 -9.02699938 4.93391627 -6 3 C-4.34416775 2.30686092 -2.67889021 1.63525576 -1 1 C-0.67 0.67 -0.34 0.34 0 0 Z " fill="#5BDCE4" transform="translate(94,223)"/>
<path d="M0 0 C0.99 0.66 1.98 1.32 3 2 C1.02 2.99 1.02 2.99 -1 4 C-0.979375 5.216875 -0.95875 6.43375 -0.9375 7.6875 C-0.93175884 10.91977322 -1.21233685 13.84934741 -2 17 C-2.99 16.67 -3.98 16.34 -5 16 C-5 15.01 -5 14.02 -5 13 C-5.66 13.66 -6.32 14.32 -7 15 C-7.99 15.495 -7.99 15.495 -9 16 C-9.35728355 18.28433427 -9.35728355 18.28433427 -9.4375 21 C-9.69864306 24.88701405 -10.23337094 28.01518838 -11.6875 31.625 C-13.26917223 35.86813994 -12.77539295 38.69057132 -11.55078125 42.98046875 C-10.90021425 45.36588108 -10.84124962 47.53936914 -11 50 C-10.34 50 -9.68 50 -9 50 C-9.495 52.475 -9.495 52.475 -10 55 C-14.97182832 50.02817168 -15.03051266 41.87516058 -15.1875 35.1875 C-14.95778922 21.34220493 -9.77109516 9.82891229 0 0 Z " fill="#68D9DE" transform="translate(49,215)"/>
<path d="M0 0 C0 1.32 0 2.64 0 4 C0.66 4 1.32 4 2 4 C4.75702189 8.79482068 5.53328373 12.58609132 6 18 C4.02 17.67 2.04 17.34 0 17 C-0.33 16.01 -0.66 15.02 -1 14 C-5.29 13.67 -9.58 13.34 -14 13 C-14.33 11.68 -14.66 10.36 -15 9 C-14.34 9 -13.68 9 -13 9 C-12.67 8.34 -12.34 7.68 -12 7 C-9.36 7.33 -6.72 7.66 -4 8 C-4.33 7.401875 -4.66 6.80375 -5 6.1875 C-6 4 -6 4 -6 1 C-3.92446352 0.4465236 -2.15634036 0 0 0 Z " fill="#5CE1E6" transform="translate(372,246)"/>
<path d="M0 0 C9.22661871 -0.48561151 9.22661871 -0.48561151 12.6875 1.6875 C14 4 14 4 13.875 6.6875 C13 9 13 9 11 10 C9.12620395 10.07033769 7.24998898 10.0843022 5.375 10.0625 C4.37210937 10.05347656 3.36921875 10.04445313 2.3359375 10.03515625 C1.56507812 10.02355469 0.79421875 10.01195312 0 10 C0 6.7 0 3.4 0 0 Z " fill="#68DADE" transform="translate(81,252)"/>
<path d="M0 0 C0.99 0.33 1.98 0.66 3 1 C2.236875 1.556875 1.47375 2.11375 0.6875 2.6875 C-3.3626907 6.17254781 -5.16218973 10.05204928 -7 15 C-5.68 15 -4.36 15 -3 15 C-2.67 14.01 -2.34 13.02 -2 12 C0 12 2 12 4 12 C3.67 13.98 3.34 15.96 3 18 C-3.19518473 17.58411954 -8.26689311 16.39748106 -14 14 C-12.4561393 10.16666407 -10.07543723 8.01691792 -7 5.3125 C-6.113125 4.52488281 -5.22625 3.73726563 -4.3125 2.92578125 C-2 1 -2 1 0 0 Z " fill="#1B9DAE" transform="translate(117,277)"/>
<path d="M0 0 C1.62490954 -0.02698189 3.24994633 -0.04638757 4.875 -0.0625 C5.77992187 -0.07410156 6.68484375 -0.08570313 7.6171875 -0.09765625 C10 0 10 0 12 1 C13.09036928 3.9737344 13.03864166 4.88407501 12 8 C9.47524538 9.26237731 7.68799534 9.09856404 4.875 9.0625 C3.96492188 9.05347656 3.05484375 9.04445312 2.1171875 9.03515625 C1.41851562 9.02355469 0.71984375 9.01195312 0 9 C0 6.03 0 3.06 0 0 Z " fill="#5EE0E4" transform="translate(81,238)"/>
<path d="M0 0 C0.74830078 0.54140625 0.74830078 0.54140625 1.51171875 1.09375 C8.29891964 5.48045076 14.07197543 5.5514082 22 5 C21.67 5.66 21.34 6.32 21 7 C18.78515625 7.59765625 18.78515625 7.59765625 16.0625 8.0625 C12.41227791 8.66805467 12.41227791 8.66805467 9 10 C8.2575 9.835 7.515 9.67 6.75 9.5 C3.5717402 8.92213458 1.14100338 9.34258069 -2 10 C-2.99 8.02 -3.98 6.04 -5 4 C-3.35 2.68 -1.7 1.36 0 0 Z " fill="#63DDE2" transform="translate(101,262)"/>
<path d="M0 0 C1.07507813 -0.00257813 2.15015625 -0.00515625 3.2578125 -0.0078125 C5.875 0.125 5.875 0.125 6.875 1.125 C6.875 3.105 6.875 5.085 6.875 7.125 C0.275 7.125 -6.325 7.125 -13.125 7.125 C-8.49151316 0.17476974 -7.62073246 -0.01836321 0 0 Z " fill="#57E0E6" transform="translate(451.125,258.875)"/>
<path d="M0 0 C0.66 0.33 1.32 0.66 2 1 C2.83341188 15.14485156 -0.08200245 25.90260417 -9 37 C-9.33 36.34 -9.66 35.68 -10 35 C-8.93125291 33.25114113 -7.86245397 31.50231382 -6.79296875 29.75390625 C-5.73055055 27.91931806 -5.73055055 27.91931806 -6.75 25.5625 C-7.1625 25.046875 -7.575 24.53125 -8 24 C-7.34 23.01 -6.68 22.02 -6 21 C-5.01 21 -4.02 21 -3 21 C-3 20.34 -3 19.68 -3 19 C-2.34 19 -1.68 19 -1 19 C-0.67 12.73 -0.34 6.46 0 0 Z " fill="#6ADBDF" transform="translate(169,243)"/>
<path d="M0 0 C3.27864546 1.09288182 3.78134149 1.66172933 5.6875 4.375 C6.34298828 5.28378906 6.34298828 5.28378906 7.01171875 6.2109375 C8 8 8 8 8 11 C6.0625 10.25 6.0625 10.25 4 9 C3.66666667 7.66666667 3.33333333 6.33333333 3 5 C1.0162233 3.71563266 1.0162233 3.71563266 -1 3 C-0.67 2.01 -0.34 1.02 0 0 Z M3 9 C3.33 9 3.66 9 4 9 C4 10.65 4 12.3 4 14 C5.32 14.33 6.64 14.66 8 15 C8 16.98 8 18.96 8 21 C5.35247996 18.42215154 3.05567935 16.08351902 1 13 C0.67 18.28 0.34 23.56 0 29 C-0.33 29 -0.66 29 -1 29 C-1.95619733 25.00204108 -2.1039592 21.29196078 -2.0625 17.1875 C-2.05347656 16.02605469 -2.04445313 14.86460937 -2.03515625 13.66796875 C-2.02355469 12.78753906 -2.01195312 11.90710938 -2 11 C-0.35 11 1.3 11 3 11 C3 10.34 3 9.68 3 9 Z " fill="#6ED8DB" transform="translate(401,236)"/>
<path d="M0 0 C5.03971921 -0.11720277 9.22426535 0.40808845 14 2 C7.69470384 5.78317769 2.55349475 8.35969023 -5 8 C-4.34 7.67 -3.68 7.34 -3 7 C-3 6.34 -3 5.68 -3 5 C-2.34 5 -1.68 5 -1 5 C-0.67 3.35 -0.34 1.7 0 0 Z " fill="#25C0D8" transform="translate(90,287)"/>
<path d="M0 0 C10.16236162 0.84132841 10.16236162 0.84132841 14 3 C14.33 3.99 14.66 4.98 15 6 C13.4375 7.625 13.4375 7.625 11 9 C6.73169572 8.23780281 3.05560626 7.17783051 0 4 C0 2.68 0 1.36 0 0 Z " fill="#5EDFE6" transform="translate(308,256)"/>
<path d="M0 0 C0.33 0.66 0.66 1.32 1 2 C6.08303686 2.11320856 6.08303686 2.11320856 11 1 C10.75 2.875 10.75 2.875 10 5 C4.75432404 8.83337859 -2.79846872 8.10879879 -9 8 C-7.25 6 -7.25 6 -5 4 C-3.68 4 -2.36 4 -1 4 C-0.67 2.68 -0.34 1.36 0 0 Z " fill="#1DC1DA" transform="translate(130,288)"/>
<path d="M0 0 C1.98 0 3.96 0 6 0 C6.33 0.99 6.66 1.98 7 3 C7.66 3 8.32 3 9 3 C9 4.65 9 6.3 9 8 C6.39417629 8.93065133 5.35801776 9.14917407 2.75 8.0625 C1.88375 7.5365625 1.88375 7.5365625 1 7 C0.67 7.66 0.34 8.32 0 9 C0 8.34 0 7.68 0 7 C-0.66 7 -1.32 7 -2 7 C-2 5.68 -2 4.36 -2 3 C-1.34 3 -0.68 3 0 3 C0 2.01 0 1.02 0 0 Z " fill="#5CE1E6" transform="translate(361,234)"/>
<path d="M0 0 C-0.33 0.99 -0.66 1.98 -1 3 C-3.475 2.505 -3.475 2.505 -6 2 C-6 1.01 -6 0.02 -6 -1 C-7.299375 -0.938125 -7.299375 -0.938125 -8.625 -0.875 C-12 -1 -12 -1 -14.75 -2.0625 C-19.60240147 -3.46223119 -25.40433914 -3.29783043 -30 -1 C-30.99 -1.33 -31.98 -1.66 -33 -2 C-33 -2.66 -33 -3.32 -33 -4 C-22.00752581 -6.47380544 -9.99412654 -5.42134223 0 0 Z " fill="#25A0B9" transform="translate(102,209)"/>
<path d="M0 0 C0.87454834 0.00523682 1.74909668 0.01047363 2.65014648 0.01586914 C3.59438477 0.0190918 4.53862305 0.02231445 5.51147461 0.02563477 C6.50469727 0.03401367 7.49791992 0.04239258 8.52124023 0.05102539 C9.51833008 0.05553711 10.51541992 0.06004883 11.54272461 0.06469727 C14.01478872 0.07652532 16.48673541 0.0930069 18.95874023 0.11352539 C18.62874023 1.76352539 18.29874023 3.41352539 17.95874023 5.11352539 C17.31936523 4.92790039 16.67999023 4.74227539 16.02124023 4.55102539 C15.00030273 4.33446289 15.00030273 4.33446289 13.95874023 4.11352539 C13.62874023 4.44352539 13.29874023 4.77352539 12.95874023 5.11352539 C12.62874023 4.12352539 12.29874023 3.13352539 11.95874023 2.11352539 C10.96874023 2.44352539 9.97874023 2.77352539 8.95874023 3.11352539 C7.29207357 3.11352539 5.6254069 3.11352539 3.95874023 3.11352539 C2.96874023 3.60852539 2.96874023 3.60852539 1.95874023 4.11352539 C1.29874023 3.78352539 0.63874023 3.45352539 -0.04125977 3.11352539 C-0.37125977 3.77352539 -0.70125977 4.43352539 -1.04125977 5.11352539 C-1.70125977 3.79352539 -2.36125977 2.47352539 -3.04125977 1.11352539 C-2.04125977 0.11352539 -2.04125977 0.11352539 0 0 Z " fill="#64DCE0" transform="translate(77.041259765625,266.886474609375)"/>
<path d="M0 0 C1.093125 0.185625 2.18625 0.37125 3.3125 0.5625 C6.93624133 1.2578068 6.93624133 1.2578068 10 0 C10.66 1.32 11.32 2.64 12 4 C12.99 4 13.98 4 15 4 C15 4.99 15 5.98 15 7 C9.66510093 6.54009491 5.62476672 5.93277889 1 3 C0.67 2.01 0.34 1.02 0 0 Z " fill="#22C5DD" transform="translate(58,288)"/>
<path d="M0 0 C0.33 1.65 0.66 3.3 1 5 C-2.11598788 6.84651134 -4.38245897 7.38079379 -8 7 C-8.66 6.34 -9.32 5.68 -10 5 C-10.66 4.67 -11.32 4.34 -12 4 C-10.3767313 3.3291288 -8.75132422 2.66342971 -7.125 2 C-6.22007813 1.62875 -5.31515625 1.2575 -4.3828125 0.875 C-2 0 -2 0 0 0 Z " fill="#1FC7DB" transform="translate(109,209)"/>
<path d="M0 0 C1.62490954 -0.02698189 3.24994633 -0.04638757 4.875 -0.0625 C5.77992187 -0.07410156 6.68484375 -0.08570313 7.6171875 -0.09765625 C10 0 10 0 12 1 C12.75 2.875 12.75 2.875 13 5 C12.01 6.485 12.01 6.485 11 8 C11 6.35 11 4.7 11 3 C9.02 3.33 7.04 3.66 5 4 C5.33 3.34 5.66 2.68 6 2 C4.35 1.67 2.7 1.34 1 1 C1.33 3.31 1.66 5.62 2 8 C4.64 8 7.28 8 10 8 C10 8.33 10 8.66 10 9 C6.7 9 3.4 9 0 9 C0 6.03 0 3.06 0 0 Z " fill="#7AD0D6" transform="translate(81,238)"/>
<path d="M0 0 C0 0.33 0 0.66 0 1 C-0.75925781 1.04898438 -1.51851562 1.09796875 -2.30078125 1.1484375 C-3.79158203 1.26058594 -3.79158203 1.26058594 -5.3125 1.375 C-6.79169922 1.47941406 -6.79169922 1.47941406 -8.30078125 1.5859375 C-11.21528433 1.83865472 -11.21528433 1.83865472 -14 4 C-14.7425 3.979375 -15.485 3.95875 -16.25 3.9375 C-19.23672429 3.83347981 -19.23672429 3.83347981 -22.625 5.5625 C-26 7 -26 7 -29 6 C-19.25498875 0.68453932 -11.06164503 -0.33690289 0 0 Z " fill="#30B9CE" transform="translate(131,204)"/>
<path d="M0 0 C2.46800047 1.15173355 4.04783565 2.04783565 6 4 C6 5.32 6 6.64 6 8 C3.6875 8.25 3.6875 8.25 1 8 C-0.8125 6 -0.8125 6 -2 4 C-1.34 2.68 -0.68 1.36 0 0 Z " fill="#5CE0E6" transform="translate(329,236)"/>
<path d="M0 0 C0.70125 0.144375 1.4025 0.28875 2.125 0.4375 C5.07556141 1.01478375 8.03270151 1.51695141 11 2 C9.35 3.98 7.7 5.96 6 8 C1.125 3.375 1.125 3.375 0 0 Z " fill="#59D9E1" transform="translate(40,272)"/>
<path d="M0 0 C0.99 0.33 1.98 0.66 3 1 C1.68 3.31 0.36 5.62 -1 8 C-3.97 8 -6.94 8 -10 8 C-10 7.34 -10 6.68 -10 6 C-9.01 6 -8.02 6 -7 6 C-6.67 5.34 -6.34 4.68 -6 4 C-5.34 4.66 -4.68 5.32 -4 6 C-3.34 5.34 -2.68 4.68 -2 4 C-2.33 3.34 -2.66 2.68 -3 2 C-2.01 2 -1.02 2 0 2 C0 1.34 0 0.68 0 0 Z " fill="#2DC9DA" transform="translate(84,224)"/>
<path d="M0 0 C-0.99 0.66 -1.98 1.32 -3 2 C-4.2188121 5.55672179 -4.2188121 5.55672179 -5 9 C-7.15473199 7.4198632 -9.10646634 5.89353366 -11 4 C-10.01 4 -9.02 4 -8 4 C-8 3.01 -8 2.02 -8 1 C-3.375 -1.125 -3.375 -1.125 0 0 Z " fill="#31C7D9" transform="translate(68,207)"/>
<path d="M0 0 C5.03971921 -0.11720277 9.22426535 0.40808845 14 2 C10.78648394 4.43448186 9.35662859 5.01783143 5.25 4.8125 C3.64125 4.4103125 3.64125 4.4103125 2 4 C1.33333333 2.66666667 0.66666667 1.33333333 0 0 Z " fill="#24C9DF" transform="translate(90,287)"/>
<path d="M0 0 C0.99 0.33 1.98 0.66 3 1 C0.5 3 0.5 3 -2 5 C-2.845625 5.721875 -3.69125 6.44375 -4.5625 7.1875 C-6.84089063 8.8816879 -8.23411445 9.59023918 -11 10 C-7.5103248 6.40768729 -4.03355127 2.98132051 0 0 Z " fill="#14B9D2" transform="translate(117,277)"/>
<path d="M0 0 C1.32 0.66 2.64 1.32 4 2 C1.36701229 4.74746544 -0.82133641 5.28598997 -4.5 5.4375 C-7.92112274 5.34168602 -8.7641673 5.18406455 -11.5625 3 C-12.2740625 2.01 -12.2740625 2.01 -13 1 C-11.9275 1.33 -10.855 1.66 -9.75 2 C-6.00268399 3.1717751 -6.00268399 3.1717751 -2 3 C-1.34 2.01 -0.68 1.02 0 0 Z " fill="#71D5DC" transform="translate(120,256)"/>
<path d="M0 0 C0.9075 0.12375 1.815 0.2475 2.75 0.375 C2.42 1.365 2.09 2.355 1.75 3.375 C0.76 3.045 -0.23 2.715 -1.25 2.375 C-1.58 3.035 -1.91 3.695 -2.25 4.375 C-6.78488372 9.14244186 -6.78488372 9.14244186 -9.25 10.375 C-4.7125 0.54375 -4.7125 0.54375 0 0 Z " fill="#2CCADA" transform="translate(125.25,267.625)"/>
<path d="M0 0 C1.39456452 0.00667256 2.78911118 0.01863093 4.18359375 0.03515625 C4.89451172 0.03966797 5.60542969 0.04417969 6.33789062 0.04882812 C8.09899388 0.06064761 9.86005411 0.07858362 11.62109375 0.09765625 C11.62109375 0.42765625 11.62109375 0.75765625 11.62109375 1.09765625 C10.99460937 1.14664062 10.368125 1.195625 9.72265625 1.24609375 C8.90539062 1.32085937 8.088125 1.395625 7.24609375 1.47265625 C6.43398437 1.54226563 5.621875 1.611875 4.78515625 1.68359375 C2.41775184 1.92658213 2.41775184 1.92658213 0.62109375 4.09765625 C-0.03890625 3.76765625 -0.69890625 3.43765625 -1.37890625 3.09765625 C-1.70890625 3.75765625 -2.03890625 4.41765625 -2.37890625 5.09765625 C-3.03890625 3.77765625 -3.69890625 2.45765625 -4.37890625 1.09765625 C-3.37890625 0.09765625 -3.37890625 0.09765625 0 0 Z " fill="#9CEEF0" transform="translate(78.37890625,266.90234375)"/>
<path d="M0 0 C2.64 0 5.28 0 8 0 C8.66 1.65 9.32 3.3 10 5 C9.34 5 8.68 5 8 5 C7.67 4.34 7.34 3.68 7 3 C3.97065509 2.34227572 3.97065509 2.34227572 1 2 C1 2.99 1 3.98 1 5 C0.01 5.33 -0.98 5.66 -2 6 C-1.34 4.02 -0.68 2.04 0 0 Z " fill="#6FD3D3" transform="translate(360,232)"/>
<path d="M0 0 C0.86625 0.268125 1.7325 0.53625 2.625 0.8125 C4.62397128 1.15194795 6.62375639 1.48671616 8.625 1.8125 C8.625 2.1425 8.625 2.4725 8.625 2.8125 C3.54413204 3.65931133 -1.22328377 3.90288099 -6.375 3.8125 C-3.05814607 -0.24143258 -3.05814607 -0.24143258 0 0 Z " fill="#1BB2CE" transform="translate(127.375,292.1875)"/>
<path d="M0 0 C0.66 0.33 1.32 0.66 2 1 C1.67 2.98 1.34 4.96 1 7 C-1.92879371 6.37240135 -4.36095629 5.41377341 -7 4 C-6.34 4 -5.68 4 -5 4 C-4.67 3.01 -4.34 2.02 -4 1 C-3.01 1 -2.02 1 -1 1 C-0.67 0.67 -0.34 0.34 0 0 Z " fill="#08ACC5" transform="translate(119,288)"/>
<path d="M0 0 C2.2477975 2.05233685 3.0022242 3.00667261 4 6 C3.01 6.66 2.02 7.32 1 8 C-0.32 7.34 -1.64 6.68 -3 6 C-3 5.01 -3 4.02 -3 3 C-2.01 3 -1.02 3 0 3 C0 2.01 0 1.02 0 0 Z " fill="#6BE0E5" transform="translate(163,225)"/>
<path d="M0 0 C1.98 0.66 3.96 1.32 6 2 C6 3.65 6 5.3 6 7 C7.32 7.66 8.64 8.32 10 9 C8 10 8 10 5.9375 9.375 C4 8 4 8 3.25 5.375 C3.1675 4.59125 3.085 3.8075 3 3 C2.01 2.67 1.02 2.34 0 2 C0 1.34 0 0.68 0 0 Z " fill="#37CEDD" transform="translate(49,280)"/>
<path d="M0 0 C0.66 0.33 1.32 0.66 2 1 C1.67 3.31 1.34 5.62 1 8 C-0.65 8.33 -2.3 8.66 -4 9 C-3.52418802 7.68628013 -3.04424851 6.37405454 -2.5625 5.0625 C-2.29566406 4.33160156 -2.02882813 3.60070312 -1.75390625 2.84765625 C-1 1 -1 1 0 0 Z " fill="#5BE1E6" transform="translate(357,244)"/>
<path d="M0 0 C0 0.66 0 1.32 0 2 C-0.99 2.495 -0.99 2.495 -2 3 C-2.65213292 5.02463255 -2.65213292 5.02463255 -3 7 C-5.16874252 6.49396008 -6.99967627 6.00016187 -9 5 C-7.87926138 4.16094435 -6.75325453 3.32892169 -5.625 2.5 C-4.99851562 2.0359375 -4.37203125 1.571875 -3.7265625 1.09375 C-2 0 -2 0 0 0 Z " fill="#4BCAD9" transform="translate(60,209)"/>
<path d="M0 0 C3.71888239 0.50712033 6.73454239 1.11608215 10 3 C9.67 3.99 9.34 4.98 9 6 C7.35 5.67 5.7 5.34 4 5 C4 4.01 4 3.02 4 2 C2.68 1.34 1.36 0.68 0 0 Z " fill="#189CB4" transform="translate(92,206)"/>
<path d="M0 0 C1.4606285 2.64738916 2 3.89448334 2 7 C2.66 7 3.32 7 4 7 C3.67 8.65 3.34 10.3 3 12 C0.71046511 9.71046511 0.47586642 8.54484795 -0.1875 5.4375 C-0.36667969 4.63183594 -0.54585937 3.82617188 -0.73046875 2.99609375 C-0.81941406 2.33738281 -0.90835938 1.67867188 -1 1 C-0.67 0.67 -0.34 0.34 0 0 Z " fill="#7DDFE1" transform="translate(36,258)"/>
<path d="M0 0 C2.97 0.495 2.97 0.495 6 1 C5.34 2.32 4.68 3.64 4 5 C2.35 4.67 0.7 4.34 -1 4 C-0.67 2.68 -0.34 1.36 0 0 Z " fill="#29CCE2" transform="translate(145,211)"/>
<path d="M0 0 C1.32 0.33 2.64 0.66 4 1 C2.38405168 3.04119788 0.7143618 5.04072937 -1 7 C-1.66 7 -2.32 7 -3 7 C-2.67 5.35 -2.34 3.7 -2 2 C-1.34 2 -0.68 2 0 2 C0 1.34 0 0.68 0 0 Z " fill="#5BD6DC" transform="translate(154,280)"/>
<path d="M0 0 C0.66 0.33 1.32 0.66 2 1 C0.1875 4 0.1875 4 -2 7 C-2.99 7 -3.98 7 -5 7 C-5 5.68 -5 4.36 -5 3 C-4.01 3 -3.02 3 -2 3 C-2 2.34 -2 1.68 -2 1 C-1.34 0.67 -0.68 0.34 0 0 Z " fill="#52E1EA" transform="translate(119,269)"/>
<path d="M0 0 C2.6855594 2.6855594 3.06049974 5.37621328 4 9 C3.01 9.495 3.01 9.495 2 10 C-0.125 9.0625 -0.125 9.0625 -2 8 C-1.01 8 -0.02 8 1 8 C0.67 7.34 0.34 6.68 0 6 C-0.039992 4.00039988 -0.04346799 1.99952758 0 0 Z " fill="#60D6D9" transform="translate(377,256)"/>
<path d="M0 0 C0.66 0 1.32 0 2 0 C2 1.65 2 3.3 2 5 C-3.2734375 8.22265625 -3.2734375 8.22265625 -5 9 C-5.66 8.67 -6.32 8.34 -7 8 C-5.47005208 6.79557292 -3.94010417 5.59114583 -2.41015625 4.38671875 C-0.72844923 2.94316909 -0.72844923 2.94316909 0 0 Z " fill="#5BD7DF" transform="translate(134,256)"/>
<path d="M0 0 C-0.33 1.65 -0.66 3.3 -1 5 C-2.98 5 -4.96 5 -7 5 C-7 4.34 -7 3.68 -7 3 C-4.4385343 0.70351351 -3.52032428 0 0 0 Z " fill="#53E1E7" transform="translate(91,226)"/>
<path d="M0 0 C4.95 0 9.9 0 15 0 C10.95322268 2.02338866 9.34093843 2.09436823 5 2 C4.01 2.495 4.01 2.495 3 3 C2.01 2.67 1.02 2.34 0 2 C0 1.34 0 0.68 0 0 Z " fill="#16B3D3" transform="translate(69,205)"/>
<path d="M0 0 C-0.66 1.98 -1.32 3.96 -2 6 C-2.99 6 -3.98 6 -5 6 C-5 5.34 -5 4.68 -5 4 C-5.66 4 -6.32 4 -7 4 C-7 3.34 -7 2.68 -7 2 C-2.25 0 -2.25 0 0 0 Z " fill="#05A5C2" transform="translate(112,285)"/>
<path d="M0 0 C0.66 0 1.32 0 2 0 C2.43200679 4.75207471 0.98489083 7.78210698 -1 12 C-2.3609623 9.2780754 -1.70366248 7.8168043 -1.0625 4.875 C-0.86785156 3.96492187 -0.67320313 3.05484375 -0.47265625 2.1171875 C-0.31667969 1.41851562 -0.16070312 0.71984375 0 0 Z " fill="#5FDFE3" transform="translate(37,237)"/>
<path d="M0 0 C4.75 0.75 4.75 0.75 7 3 C6.625 5.625 6.625 5.625 6 8 C3.87961365 5.38485683 1.86908256 2.80362384 0 0 Z " fill="#6DD7D8" transform="translate(127,235)"/>
<path d="M0 0 C0 0.99 0 1.98 0 3 C0.66 3.33 1.32 3.66 2 4 C-2 4 -2 4 -4.25 2 C-4.8275 1.34 -5.405 0.68 -6 0 C-3.50907189 -1.24546405 -2.58919267 -0.7767578 0 0 Z " fill="#6DDAD8" transform="translate(101,233)"/>
<path d="M0 0 C0.33 0.99 0.66 1.98 1 3 C1.66 3 2.32 3 3 3 C3 4.32 3 5.64 3 7 C2.01 7.33 1.02 7.66 0 8 C-0.66 6.02 -1.32 4.04 -2 2 C-1.34 1.34 -0.68 0.68 0 0 Z " fill="#56E4EA" transform="translate(90,252)"/>
<path d="M0 0 C0.66 0 1.32 0 2 0 C2.33 0.99 2.66 1.98 3 3 C5.50447516 4.21869929 5.50447516 4.21869929 8 5 C6.02 5.99 6.02 5.99 4 7 C2 5.75 2 5.75 0 4 C0 2.68 0 1.36 0 0 Z " fill="#56E1E4" transform="translate(308,256)"/>
<path d="M0 0 C0 3.41099168 -0.49145406 6.63088314 -1 10 C-1.99 9.67 -2.98 9.34 -4 9 C-3.46930939 5.17902761 -2.50298434 2.93828597 0 0 Z " fill="#6DD6DA" transform="translate(308,236)"/>
<path d="M0 0 C0.625 1.8125 0.625 1.8125 1 4 C0.01 5.485 0.01 5.485 -1 7 C-1 5.35 -1 3.7 -1 2 C-2.98 2.33 -4.96 2.66 -7 3 C-4.49955934 -0.00052879 -4.2621484 0 0 0 Z " fill="#67D6D8" transform="translate(93,239)"/>
<path d="M0 0 C1.98 0.495 1.98 0.495 4 1 C3.67 2.98 3.34 4.96 3 7 C1.68 6.67 0.36 6.34 -1 6 C-0.67 4.02 -0.34 2.04 0 0 Z " fill="#32D5E3" transform="translate(153,215)"/>
<path d="M0 0 C1.98 0 3.96 0 6 0 C3.3401439 3.44216672 0.09711714 3.99504674 -4 5 C-3.34 4.01 -2.68 3.02 -2 2 C-1.34 2 -0.68 2 0 2 C0 1.34 0 0.68 0 0 Z " fill="#3FC8D5" transform="translate(144,288)"/>
<path d="M0 0 C0.99 0 1.98 0 3 0 C2.67 0.99 2.34 1.98 2 3 C1.34 3 0.68 3 0 3 C0.33 4.32 0.66 5.64 1 7 C0.34 7 -0.32 7 -1 7 C-1.625 4.625 -1.625 4.625 -2 2 C-1.34 1.34 -0.68 0.68 0 0 Z " fill="#59E1E4" transform="translate(100,265)"/>
<path d="M0 0 C0.99 0 1.98 0 3 0 C3.66 1.65 4.32 3.3 5 5 C3.35 5.33 1.7 5.66 0 6 C0 4.02 0 2.04 0 0 Z " fill="#36D0E6" transform="translate(58,212)"/>
<path d="M0 0 C2.31 0 4.62 0 7 0 C7 0.66 7 1.32 7 2 C4.69 2.33 2.38 2.66 0 3 C0 2.01 0 1.02 0 0 Z " fill="#2ECBE4" transform="translate(101,213)"/>
<path d="M0 0 C1.09658936 3.28976808 0.79953138 4.71303767 0 8 C-0.99 7.67 -1.98 7.34 -3 7 C-2.25 2.25 -2.25 2.25 0 0 Z " fill="#5BE1E5" transform="translate(47,224)"/>
<path d="M0 0 C0.33 0.66 0.66 1.32 1 2 C1.99 2 2.98 2 4 2 C4 2.66 4 3.32 4 4 C3.34 4 2.68 4 2 4 C2 4.66 2 5.32 2 6 C1.01 5.67 0.02 5.34 -1 5 C-0.67 3.35 -0.34 1.7 0 0 Z " fill="#0EBDE0" transform="translate(130,288)"/>
<path d="M0 0 C1.32 1.32 2.64 2.64 4 4 C3.236875 3.95875 2.47375 3.9175 1.6875 3.875 C-1.22718416 3.77919176 -1.22718416 3.77919176 -4 6 C-4.33 5.34 -4.66 4.68 -5 4 C-3.35 2.68 -1.7 1.36 0 0 Z " fill="#71D7DD" transform="translate(101,262)"/>
<path d="" fill="#00FFFF" transform="translate(0,0)"/>
</svg>
